<svg width="74px" height="87px" viewBox="0 0 1417 1767" fill="none" xmlns="http://www.w3.org/2000/svg">
    <path fill-rule="evenodd" clip-rule="evenodd" d="M142.511 309.58L648.817 18.2242C664.588 10.4219 684.843 0.319336 714.385 0.319336C745.429 0.319336 757.697 7.22059 780.62 18.568L1283.86 308.273C1326.16 331.018 1351.52 375.78 1349.32 423.733V1027.28C1351.51 1075.08 1323.23 1113.76 1286.68 1141.39L778.557 1433.9C756.905 1445.27 738.744 1451.82 713.71 1451.82C687.283 1451.82 662.784 1443.57 642.633 1429.53L141.81 1141.22C103.584 1115.47 77.9262 1076.53 79.3433 1029.25L79.2793 417.944C79.2793 372.978 103.434 331.698 142.511 309.58Z" fill="#3BBEDB"></path>
    <path fill-rule="evenodd" clip-rule="evenodd" d="M344.979 457.041L672.025 268.841C682.212 263.801 695.296 257.275 714.378 257.275C734.431 257.275 742.356 261.734 757.163 269.063L1082.23 456.196C1109.55 470.889 1125.93 499.802 1124.51 530.777V920.636C1125.93 951.508 1107.66 976.496 1084.05 994.343L755.83 1183.29C741.843 1190.63 730.113 1194.86 713.942 1194.86C696.872 1194.86 681.047 1189.54 668.03 1180.46L606.129 1144.83L392.221 1285.37L394.004 1022.71L344.526 994.23C319.835 977.599 303.261 952.448 304.177 921.905L304.135 527.037C304.135 497.993 319.738 471.328 344.979 457.041Z" fill="white"></path>
    <path fill-rule="evenodd" clip-rule="evenodd" d="M470.513 605.29H537.424C548.189 605.29 556.995 614.097 556.995 624.861V907.194C556.995 917.96 548.189 926.766 537.424 926.766H470.513C459.748 926.766 450.941 917.96 450.941 907.194V624.861C450.941 614.097 459.748 605.29 470.513 605.29Z" fill="#3BBEDB"></path>
    <path fill-rule="evenodd" clip-rule="evenodd" d="M613.022 679.859H679.934C690.698 679.859 699.505 688.666 699.505 699.431V907.195C699.505 917.96 690.698 926.767 679.934 926.767H613.022C602.258 926.767 593.451 917.96 593.451 907.195V699.431C593.451 688.666 602.258 679.859 613.022 679.859Z" fill="#3BBEDB"></path>
    <path fill-rule="evenodd" clip-rule="evenodd" d="M755.533 751.91H822.443C833.208 751.91 842.015 760.717 842.015 771.481V907.195C842.015 917.96 833.208 926.767 822.443 926.767H755.533C744.768 926.767 735.961 917.96 735.961 907.195V771.481C735.961 760.717 744.768 751.91 755.533 751.91Z" fill="#3BBEDB"></path>
    <path fill-rule="evenodd" clip-rule="evenodd" d="M891.415 534.035H958.326C969.091 534.035 977.898 542.843 977.898 553.607V907.195C977.898 917.96 969.091 926.767 958.326 926.767H891.415C880.651 926.767 871.844 917.96 871.844 907.195V553.607C871.844 542.843 880.651 534.035 891.415 534.035Z" fill="#3BBEDB"></path>
    <path fill-rule="evenodd" clip-rule="evenodd" d="M743.774 637.714H767.818V613.103C767.818 608.806 771.334 605.29 775.631 605.29H802.344C806.641 605.29 810.157 608.806 810.157 613.103V637.714H834.201C838.499 637.714 842.015 641.23 842.015 645.527V672.24C842.015 676.538 838.499 680.053 834.201 680.053H810.157V704.664C810.157 708.961 806.641 712.477 802.344 712.477H775.631C771.334 712.477 767.818 708.961 767.818 704.664V680.053H743.774C739.477 680.053 735.961 676.538 735.961 672.24V645.527C735.961 641.23 739.477 637.714 743.774 637.714Z" fill="#3BBEDB"></path>
    <path fill-rule="evenodd" clip-rule="evenodd" d="M61.9755 1660.93V1727.53H0.783203V1539.96H93.7035C110.082 1539.96 127.673 1543.23 139.937 1555.39C151.611 1566.95 155.582 1582.77 155.582 1599.11C155.582 1616.35 150.982 1632.48 138.575 1644.53C125.12 1657.59 105.492 1660.93 87.7214 1660.93H61.9755ZM283.616 1637.87L307.794 1539.96H384.775V1727.53H333.526V1616.81L306.189 1727.53H260.706L233.452 1616.88V1727.53H182.203V1539.96H259.509L283.616 1637.87ZM533.78 1637.34L474.863 1727.53H418.348V1539.96H476.387V1630.91L535.789 1539.96H591.577V1727.53H533.78V1637.34ZM742.357 1697.87H687.02L678.289 1727.53H615.486L683.61 1539.96H747.432L815.261 1727.53H751.047L742.357 1697.87ZM979.821 1727.53H838.198V1539.96H899.148V1675.67H950.721V1539.96H1011.67V1678.44H1030.34V1766.73H979.821V1727.53ZM61.9755 1616.86H71.5143C77.2774 1616.86 86.4466 1616.27 91.0695 1612.17C94.49 1609.13 96.0878 1605.4 96.0878 1600.74C96.0878 1596.16 94.686 1592.32 91.6198 1589.02C87.7275 1584.83 78.8547 1584.28 73.6562 1584.28H61.9755V1616.86ZM728.766 1651.3L714.764 1603.52L700.702 1651.3H728.766Z" fill="#3BBEDB"></path>
    <path d="M1138 1540H1076L1091.5 1574L1122 1640L1137.5 1673.5V1675L1135.5 1680L1132.5 1683.5L1128.5 1686.5L1123.5 1688.5L1118 1689.5H1112L1102 1688.5L1092.5 1687.5V1725.5L1113 1728.5H1119.5H1137.5L1145.5 1727.5L1152 1725.5L1159.5 1722L1167 1717L1173 1710.5L1177 1704L1182.5 1693L1247.5 1540H1189.5L1164 1616.5L1138 1540Z" fill="#3BBEDB" stroke="#3BBEDB"></path>
    <path d="M1262 1725.5V1538H1358.5L1367.5 1539L1375 1540L1381 1541.5L1387 1544L1394 1547.5L1399 1551.5L1402.5 1555L1406.5 1560L1409.5 1565.5L1412 1570L1413.5 1574.5L1415 1581L1416 1588.5L1416.5 1594V1602.5L1415.5 1611L1413.5 1618.5L1411.5 1625L1408.5 1631L1405.5 1635.5L1402 1640L1397.5 1644.5L1393 1648L1389.5 1650L1382 1653.5L1376 1655.5L1369.5 1657L1363.5 1658L1349 1659L1322.81 1658V1725.5H1262Z" fill="#3BBEDB" stroke="#3BBEDB"></path>
    <path d="M1323 1615V1582H1332.5H1337.5L1341 1582.5L1344.5 1583L1347.5 1584L1350 1585L1352 1586.5L1354 1588.5L1355.5 1590.5L1356.5 1593L1357 1595.5V1598.5V1601.5L1356.5 1604L1355.5 1606.5L1354 1608.5L1352 1610.5L1347.5 1613L1342 1614.5L1335 1615H1323Z" fill="white" stroke="white"></path>
</svg>